<svg width="800" height="800" viewBox="0 0 800 800" fill="none" xmlns="http://www.w3.org/2000/svg">
<rect width="799" height="799" rx="250" fill="#DFC6FF"/>
<path d="M116.667 250C144.281 250 166.667 227.614 166.667 200C166.667 172.386 144.281 150 116.667 150C89.0524 150 66.6667 172.386 66.6667 200C66.6667 227.614 89.0524 250 116.667 250Z" fill="#3C0089"/>
<path d="M266.667 166.667C248.257 166.667 233.333 181.591 233.333 200C233.333 218.409 248.257 233.333 266.667 233.333H700C718.41 233.333 733.333 218.409 733.333 200C733.333 181.591 718.41 166.667 700 166.667H266.667Z" fill="#3C0089"/>
<path d="M266.667 366.667C248.257 366.667 233.333 381.59 233.333 400C233.333 418.41 248.257 433.333 266.667 433.333H700C718.41 433.333 733.333 418.41 733.333 400C733.333 381.59 718.41 366.667 700 366.667H266.667Z" fill="#3C0089"/>
<path d="M233.333 600C233.333 581.59 248.257 566.667 266.667 566.667H700C718.41 566.667 733.333 581.59 733.333 600C733.333 618.41 718.41 633.333 700 633.333H266.667C248.257 633.333 233.333 618.41 233.333 600Z" fill="#3C0089"/>
<path d="M166.667 400C166.667 427.613 144.281 450 116.667 450C89.0524 450 66.6667 427.613 66.6667 400C66.6667 372.387 89.0524 350 116.667 350C144.281 350 166.667 372.387 166.667 400Z" fill="#3C0089"/>
<path d="M116.667 650C144.281 650 166.667 627.613 166.667 600C166.667 572.387 144.281 550 116.667 550C89.0524 550 66.6667 572.387 66.6667 600C66.6667 627.613 89.0524 650 116.667 650Z" fill="#3C0089"/>
</svg>
